<svg width="112" height="38" viewBox="0 0 112 38" fill="none" xmlns="http://www.w3.org/2000/svg">
<g clip-path="url(#clip0_68_3808)">
<path d="M103.007 0.000946045H8.91449C8.57778 0.000946045 8.24107 0.000946045 7.895 0.000946045C7.60506 0.000946045 7.32446 0.000946045 7.03452 0.0102935C6.40786 0.0102935 5.7812 0.0757258 5.1639 0.178548C4.54659 0.28137 3.94799 0.477667 3.3868 0.767438C2.82562 1.05721 2.32055 1.42176 1.8716 1.87044C1.42265 2.30977 1.04853 2.82388 0.767932 3.38473C0.487338 3.94558 0.290923 4.54381 0.188039 5.16075C0.0758015 5.77768 0.0196828 6.40396 0.0196828 7.03024C0.0196828 7.32001 0.0103297 7.60043 0.000976562 7.89021V29.4922C0.000976562 29.782 0.000976562 30.0624 0.0196828 30.3522C0.0196828 30.9784 0.0851546 31.6047 0.188039 32.2217C0.290923 32.8386 0.487338 33.4462 0.777285 33.9977C1.05788 34.5585 1.432 35.0633 1.88095 35.5026C2.32055 35.9513 2.83497 36.3158 3.39616 36.6056C3.95734 36.886 4.55594 37.0917 5.17325 37.1945C5.79055 37.2973 6.41721 37.3534 7.04387 37.3628C7.33382 37.3628 7.61441 37.3721 7.90436 37.3721C8.25042 37.3721 8.58713 37.3721 8.92385 37.3721H103.016C103.353 37.3721 103.69 37.3721 104.026 37.3721C104.307 37.3721 104.606 37.3721 104.887 37.3628C105.513 37.3628 106.14 37.2973 106.757 37.1945C107.375 37.0917 107.983 36.886 108.544 36.6056C109.105 36.3252 109.61 35.9513 110.059 35.5026C110.508 35.0633 110.873 34.5492 111.163 33.9977C111.443 33.4368 111.64 32.8386 111.743 32.2217C111.846 31.6047 111.902 30.9784 111.92 30.3522C111.92 30.0624 111.92 29.782 111.92 29.4922C111.92 29.1557 111.92 28.8192 111.92 28.4733V8.91843C111.92 8.57257 111.92 8.23606 111.92 7.89955C111.92 7.60978 111.92 7.32936 111.92 7.03959C111.911 6.41331 111.855 5.78703 111.743 5.17009C111.64 4.55316 111.443 3.95492 111.163 3.39408C110.583 2.27238 109.666 1.35633 108.544 0.776786C107.983 0.496362 107.384 0.300065 106.757 0.187895C106.14 0.0850732 105.513 0.0289884 104.887 0.019641C104.606 0.019641 104.307 0.0102935 104.026 0.0102935C103.69 0.0102935 103.353 0.0102935 103.016 0.0102935L103.007 0.000946045Z" fill="#A6A6A6"/>
<path d="M7.89427 36.5774C7.61368 36.5774 7.33309 36.5774 7.05249 36.568C6.46325 36.568 5.88335 36.5119 5.30346 36.4185C4.76098 36.325 4.24656 36.1567 3.75084 35.9044C3.26448 35.6613 2.82488 35.3342 2.44141 34.9509C2.05793 34.5677 1.73057 34.1283 1.48739 33.6423C1.24421 33.1562 1.0665 32.6328 0.982321 32.0906C0.88879 31.5111 0.832671 30.9222 0.823318 30.3333C0.823318 30.137 0.813965 29.4827 0.813965 29.4827V7.89001C0.813965 7.89001 0.813965 7.24503 0.823318 7.05808C0.823318 6.46919 0.879437 5.88965 0.982321 5.31011C1.07585 4.76796 1.24421 4.2445 1.48739 3.75843C1.73057 3.27236 2.04858 2.83303 2.44141 2.44978C2.82488 2.06654 3.26448 1.73938 3.75084 1.49634C4.23721 1.25331 4.76098 1.07571 5.29411 0.991579C5.874 0.898104 6.46325 0.84202 7.05249 0.84202H7.89427L104.016 0.832672H104.867C105.447 0.851367 106.027 0.898104 106.607 1.00093C107.15 1.0944 107.673 1.26266 108.169 1.51504C109.142 2.01045 109.927 2.80499 110.432 3.77712C110.676 4.26319 110.844 4.78665 110.938 5.31946C111.031 5.899 111.087 6.48789 111.097 7.08613C111.097 7.34786 111.097 7.63763 111.097 7.91805C111.097 8.27326 111.097 8.60042 111.097 8.93692V28.5012C111.097 28.8377 111.097 29.1742 111.097 29.5107C111.097 29.8192 111.097 30.0902 111.097 30.38C111.087 30.9596 111.031 31.5391 110.938 32.1093C110.853 32.6514 110.676 33.1749 110.432 33.6703C110.189 34.147 109.862 34.5864 109.478 34.9696C109.095 35.3529 108.655 35.68 108.169 35.9231C107.673 36.1754 107.15 36.3437 106.607 36.4372C106.027 36.5306 105.447 36.5867 104.858 36.5867C104.587 36.5867 104.297 36.5961 104.016 36.5961H103.006H7.89427V36.5774Z" fill="black"/>
<path d="M35.5519 8.15988C36.5246 8.11315 37.3477 8.86094 37.3945 9.83308C37.3945 9.89851 37.3945 9.9546 37.3945 10.02C37.4319 11.0015 36.6743 11.8241 35.6922 11.8615C35.6361 11.8615 35.58 11.8615 35.5239 11.8615H34.2331V13.7403H33.3633V8.15988H35.5519ZM34.2331 11.095H35.3274C36.0757 11.095 36.5153 10.7117 36.5153 10.02C36.5153 9.32832 36.0944 8.92638 35.3274 8.92638H34.2331V11.095Z" fill="white"/>
<path d="M38.1976 11.6274C38.0947 10.5337 38.8991 9.56158 39.9934 9.44941C41.0877 9.34659 42.0604 10.1505 42.1727 11.2441C42.182 11.375 42.182 11.4965 42.1727 11.6274C42.2755 12.721 41.4805 13.7025 40.3769 13.8053C39.2825 13.9082 38.3005 13.1136 38.1976 12.0106C38.1882 11.8798 38.1882 11.7489 38.1976 11.6274ZM41.3122 11.6274C41.3122 10.7113 40.9006 10.1785 40.1804 10.1785C39.4603 10.1785 39.0487 10.7113 39.0487 11.6274C39.0487 12.5434 39.4509 13.0762 40.1804 13.0762C40.9006 13.0762 41.3122 12.5434 41.3122 11.6274Z" fill="white"/>
<path d="M44.186 13.0771H44.1205V13.7407H43.3162V7.88922H44.1486V10.198H44.2141C44.4666 9.72132 44.9717 9.43155 45.5141 9.4596C46.5804 9.4596 47.2538 10.2915 47.2538 11.6282C47.2538 12.9649 46.5804 13.8062 45.5141 13.8062C44.9717 13.8342 44.4572 13.5444 44.186 13.0677V13.0771ZM44.1392 11.6376C44.1392 12.5162 44.5788 13.0677 45.2803 13.0677C45.9818 13.0677 46.4027 12.5349 46.4027 11.6376C46.4027 10.7402 45.9818 10.2074 45.2803 10.2074C44.5882 10.2074 44.1486 10.7589 44.1392 11.6376Z" fill="white"/>
<path d="M48.2635 8.28106C48.2448 7.98194 48.4693 7.72956 48.7686 7.71087C49.0679 7.69217 49.3204 7.91651 49.3391 8.21563C49.3579 8.51475 49.1334 8.76713 48.8341 8.78582C48.8247 8.78582 48.8154 8.78582 48.806 8.78582C48.5254 8.80452 48.2822 8.58018 48.2729 8.29976V8.28106H48.2635ZM48.3851 9.52427H49.2176V13.7306H48.3851V9.52427Z" fill="white"/>
<path d="M54.1191 12.6006C53.8852 13.3951 53.1183 13.9092 52.2952 13.8157C51.2383 13.8438 50.3591 13.0119 50.3311 11.9556C50.3311 11.8528 50.3311 11.7499 50.3498 11.6471C50.2095 10.5815 50.9577 9.60938 52.0146 9.46917C52.1081 9.45982 52.2017 9.45047 52.2859 9.45047C53.455 9.45047 54.1658 10.2544 54.1658 11.5723V11.8621H51.1915V11.9089C51.1354 12.5258 51.5937 13.0586 52.211 13.1147C52.2484 13.1147 52.2859 13.1147 52.3139 13.1147C52.7161 13.1614 53.1183 12.9651 53.3147 12.6006H54.1191ZM51.1915 11.2452H53.3147C53.3521 10.6843 52.9406 10.1983 52.3794 10.1609C52.342 10.1609 52.3139 10.1609 52.2765 10.1609C51.6779 10.1609 51.1915 10.6283 51.1822 11.2265C51.1822 11.2265 51.1822 11.2452 51.1822 11.2545L51.1915 11.2452Z" fill="white"/>
<path d="M55.2864 9.52443H56.0907V10.1694H56.1562C56.3433 9.71138 56.8016 9.42161 57.2973 9.44965C57.4189 9.44965 57.5498 9.459 57.6714 9.48704V10.3096C57.5218 10.2816 57.3628 10.2629 57.2038 10.2629C56.6613 10.2161 56.1843 10.6181 56.1282 11.1602C56.1282 11.1883 56.1282 11.2257 56.1282 11.2537V13.7401H55.2957V9.53378L55.2864 9.52443Z" fill="white"/>
<path d="M58.4756 13.169L60.7952 10.29V10.2246H58.4943V9.5235H61.7866V10.1311L59.5231 12.9634V13.0288H61.8146V13.7299H58.4849V13.169H58.4756Z" fill="white"/>
<path d="M69.6543 13.7407H68.7939L67.924 10.6373H67.8585L66.9887 13.7407H66.1376L64.9778 9.5343H65.8196L66.5772 12.7498H66.6426L67.5125 9.5343H68.3075L69.1773 12.7498H69.2428L69.9911 9.5343H70.8235L69.6637 13.7407H69.6543Z" fill="white"/>
<path d="M8.38156 9.31901C8.13987 9.56603 8 9.95062 8 10.4487V28.214C8 28.712 8.13987 29.0966 8.38156 29.3436L8.44122 29.3979L18.6375 19.4468V19.2118L8.44122 9.26077L8.38156 9.31901Z" fill="url(#paint0_linear_68_3808)"/>
<path d="M22.0327 22.7655L18.6377 19.4468V19.2118L22.0368 15.8931L22.1129 15.9363L26.1384 18.1725C27.2872 18.8071 27.2872 19.8514 26.1384 20.4901L22.1129 22.7223L22.0327 22.7655V22.7655Z" fill="url(#paint1_linear_68_3808)"/>
<path d="M22.1128 22.7223L18.6375 19.3293L8.38159 29.3436C8.76316 29.7353 9.38538 29.7825 10.093 29.3908L22.1128 22.7223" fill="url(#paint2_linear_68_3808)"/>
<path d="M22.1128 15.9363L10.093 9.26777C9.38538 8.88017 8.76316 8.92737 8.38159 9.31898L18.6375 19.3293L22.1128 15.9363Z" fill="url(#paint3_linear_68_3808)"/>
</g>
<path d="M55.452 21.5636C53.5127 21.5636 51.9285 23.0329 51.9285 25.0602C51.9285 27.0711 53.5127 28.5559 55.452 28.5559C57.3954 28.5559 58.9797 27.0711 58.9797 25.0602C58.9797 23.0329 57.3954 21.5636 55.452 21.5636ZM55.452 27.179C54.3879 27.179 53.4725 26.3046 53.4725 25.0602C53.4725 23.7995 54.3879 22.9405 55.452 22.9405C56.5161 22.9405 57.4357 23.7995 57.4357 25.0602C57.4357 26.3046 56.5161 27.179 55.452 27.179ZM47.764 21.5636C45.8206 21.5636 44.2405 23.0329 44.2405 25.0602C44.2405 27.0711 45.8206 28.5559 47.764 28.5559C49.7064 28.5559 51.2875 27.0711 51.2875 25.0602C51.2875 23.0329 49.7064 21.5636 47.764 21.5636ZM47.764 27.179C46.6989 27.179 45.7803 26.3046 45.7803 25.0602C45.7803 23.7995 46.6989 22.9405 47.764 22.9405C48.8281 22.9405 49.7435 23.7995 49.7435 25.0602C49.7435 26.3046 48.8281 27.179 47.764 27.179ZM38.6156 22.6353V24.1211H42.1794C42.0752 24.9513 41.7965 25.5617 41.3692 25.9871C40.8491 26.5008 40.0389 27.0711 38.6156 27.0711C36.4225 27.0711 34.7051 25.3089 34.7051 23.1254C34.7051 20.9419 36.4225 19.1797 38.6156 19.1797C39.8015 19.1797 40.6643 19.6411 41.3011 20.2391L42.3528 19.192C41.4621 18.3454 40.2773 17.6949 38.6156 17.6949C35.6081 17.6949 33.0806 20.1312 33.0806 23.1254C33.0806 26.1196 35.6081 28.5559 38.6156 28.5559C40.2412 28.5559 41.4621 28.0257 42.4219 27.031C43.4055 26.0518 43.7121 24.6749 43.7121 23.5631C43.7121 23.2179 43.6832 22.9004 43.6316 22.6353H38.6156ZM76.0245 23.7871C75.7345 23.0052 74.8397 21.5636 73.017 21.5636C71.2109 21.5636 69.7071 22.9805 69.7071 25.0602C69.7071 27.0187 71.1954 28.5559 73.1904 28.5559C74.8036 28.5559 75.7345 27.5766 76.1174 27.0064L74.9202 26.2121C74.5208 26.7937 73.9769 27.179 73.1904 27.179C72.4091 27.179 71.8487 26.8224 71.4895 26.1196L76.1866 24.1848L76.0245 23.7871ZM71.2357 24.9513C71.1954 23.6032 72.2873 22.9127 73.0697 22.9127C73.6827 22.9127 74.2029 23.2179 74.3763 23.6546L71.2357 24.9513ZM67.418 28.3432H68.962V18.0679H67.418V28.3432ZM64.8894 22.3424H64.8378C64.491 21.9335 63.8294 21.5636 62.9914 21.5636C61.2327 21.5636 59.6247 23.1007 59.6247 25.0715C59.6247 27.031 61.2327 28.5559 62.9914 28.5559C63.8294 28.5559 64.491 28.1829 64.8378 27.7616H64.8894V28.263C64.8894 29.5998 64.1721 30.3181 63.0151 30.3181C62.0718 30.3181 61.4866 29.6399 61.2451 29.0696L59.9023 29.6276C60.2894 30.5544 61.3142 31.6949 63.0151 31.6949C64.8254 31.6949 66.3529 30.6345 66.3529 28.0544V21.7763H64.8894V22.3424ZM63.1235 27.179C62.0594 27.179 61.1687 26.2922 61.1687 25.0715C61.1687 23.8395 62.0594 22.9405 63.1235 22.9405C64.1721 22.9405 64.9988 23.8395 64.9988 25.0715C64.9988 26.2922 64.1721 27.179 63.1235 27.179ZM83.2532 18.0679H79.5604V28.3432H81.1003V24.4499H83.2532C84.9634 24.4499 86.6405 23.2179 86.6405 21.2584C86.6405 19.2999 84.9593 18.0679 83.2532 18.0679ZM83.2935 23.0206H81.1003V19.4972H83.2935C84.4432 19.4972 85.0996 20.4477 85.0996 21.2584C85.0996 22.0537 84.4432 23.0206 83.2935 23.0206ZM92.8124 21.544C91.6998 21.544 90.5428 22.0331 90.067 23.1172L91.4335 23.6875C91.7277 23.1172 92.2685 22.9322 92.8402 22.9322C93.6391 22.9322 94.4493 23.41 94.4616 24.2536V24.3615C94.183 24.2012 93.5864 23.9639 92.8526 23.9639C91.3809 23.9639 89.8813 24.7705 89.8813 26.2758C89.8813 27.6527 91.0867 28.5394 92.4419 28.5394C93.4781 28.5394 94.0498 28.074 94.409 27.5325H94.4616V28.3267H95.9489V24.3851C95.9489 22.5634 94.5824 21.544 92.8124 21.544ZM92.6266 27.1749C92.1229 27.1749 91.4211 26.9262 91.4211 26.3046C91.4211 25.5093 92.2963 25.2041 93.0539 25.2041C93.732 25.2041 94.0498 25.3531 94.4616 25.5493C94.3409 26.5008 93.5183 27.1749 92.6266 27.1749ZM101.367 21.7691L99.5973 26.2234H99.5447L97.7148 21.7691H96.0542L98.8036 27.9938L97.2348 31.4576H98.8439L103.081 21.7691H101.367ZM87.4868 28.3432H89.0308V18.0679H87.4868V28.3432Z" fill="white"/>
<defs>
<linearGradient id="paint0_linear_68_3808" x1="17.7322" y1="28.399" x2="4.25452" y2="14.5947" gradientUnits="userSpaceOnUse">
<stop stop-color="#00A0FF"/>
<stop offset="0.0066" stop-color="#00A1FF"/>
<stop offset="0.2601" stop-color="#00BEFF"/>
<stop offset="0.5122" stop-color="#00D2FF"/>
<stop offset="0.7604" stop-color="#00DFFF"/>
<stop offset="1" stop-color="#00E3FF"/>
</linearGradient>
<linearGradient id="paint1_linear_68_3808" x1="27.6343" y1="19.3282" x2="7.72558" y2="19.3282" gradientUnits="userSpaceOnUse">
<stop stop-color="#FFE000"/>
<stop offset="0.4087" stop-color="#FFBD00"/>
<stop offset="0.7754" stop-color="#FFA500"/>
<stop offset="1" stop-color="#FF9C00"/>
</linearGradient>
<linearGradient id="paint2_linear_68_3808" x1="20.223" y1="17.4848" x2="1.9462" y2="-1.23487" gradientUnits="userSpaceOnUse">
<stop stop-color="#FF3A44"/>
<stop offset="1" stop-color="#C31162"/>
</linearGradient>
<linearGradient id="paint3_linear_68_3808" x1="5.79996" y1="35.254" x2="13.9614" y2="26.8949" gradientUnits="userSpaceOnUse">
<stop stop-color="#32A071"/>
<stop offset="0.0685" stop-color="#2DA771"/>
<stop offset="0.4762" stop-color="#15CF74"/>
<stop offset="0.8009" stop-color="#06E775"/>
<stop offset="1" stop-color="#00F076"/>
</linearGradient>
<clipPath id="clip0_68_3808">
<rect width="111.919" height="37.3899" fill="white"/>
</clipPath>
</defs>
</svg>
