<svg width="122" height="41" viewBox="0 0 122 41" fill="none" xmlns="http://www.w3.org/2000/svg">
<g clip-path="url(#clip0_4_7279)">
<path d="M112.285 0.000946045H9.71725C9.35021 0.000946045 8.98317 0.000946045 8.60593 0.000946045C8.28987 0.000946045 7.984 0.000946045 7.66794 0.011196C6.98484 0.011196 6.30174 0.082946 5.62883 0.195696C4.95592 0.308446 4.30341 0.523696 3.69168 0.841446C3.07994 1.1592 2.52938 1.55895 2.04 2.05095C1.55061 2.5327 1.14279 3.09645 0.83692 3.71145C0.531054 4.32645 0.316947 4.98245 0.204796 5.65895C0.0824494 6.33545 0.0212761 7.0222 0.0212761 7.70894C0.0212761 8.02669 0.0110806 8.33419 0.00088501 8.65194V32.3397C0.00088501 32.6574 0.00088501 32.9649 0.0212761 33.2827C0.0212761 33.9694 0.092645 34.6562 0.204796 35.3327C0.316947 36.0092 0.531054 36.6754 0.847116 37.2802C1.15298 37.8952 1.5608 38.4487 2.05019 38.9304C2.52938 39.4224 3.09014 39.8222 3.70187 40.1399C4.3136 40.4474 4.96612 40.6729 5.63903 40.7857C6.31193 40.8984 6.99503 40.9599 7.67814 40.9702C7.9942 40.9702 8.30007 40.9804 8.61613 40.9804C8.99336 40.9804 9.3604 40.9804 9.72744 40.9804H112.295C112.662 40.9804 113.029 40.9804 113.396 40.9804C113.702 40.9804 114.028 40.9804 114.334 40.9702C115.017 40.9702 115.7 40.8984 116.373 40.7857C117.046 40.6729 117.709 40.4474 118.32 40.1399C118.932 39.8324 119.483 39.4224 119.972 38.9304C120.461 38.4487 120.859 37.8849 121.175 37.2802C121.481 36.6652 121.695 36.0092 121.807 35.3327C121.919 34.6562 121.98 33.9694 122.001 33.2827C122.001 32.9649 122.001 32.6574 122.001 32.3397C122.001 31.9707 122.001 31.6017 122.001 31.2224V9.77944C122.001 9.40019 122.001 9.03119 122.001 8.66219C122.001 8.34444 122.001 8.03695 122.001 7.7192C121.991 7.03245 121.93 6.3457 121.807 5.6692C121.695 4.9927 121.481 4.3367 121.175 3.7217C120.543 2.4917 119.544 1.4872 118.32 0.851696C117.709 0.544196 117.056 0.328946 116.373 0.205946C115.7 0.093196 115.017 0.031696 114.334 0.021446C114.028 0.021446 113.702 0.011196 113.396 0.011196C113.029 0.011196 112.662 0.011196 112.295 0.011196L112.285 0.000946045Z" fill="#A6A6A6"/>
<path d="M8.60515 40.1091C8.29928 40.1091 7.99342 40.1091 7.68755 40.0988C7.04523 40.0988 6.41311 40.0373 5.78098 39.9348C5.18964 39.8323 4.62888 39.6478 4.08852 39.3711C3.55835 39.1046 3.07916 38.7458 2.66114 38.3256C2.24312 37.9053 1.88628 37.4236 1.6212 36.8906C1.35611 36.3576 1.1624 35.7836 1.07064 35.1891C0.96868 34.5536 0.907507 33.9078 0.897311 33.2621C0.897311 33.0468 0.887115 32.3293 0.887115 32.3293V8.65182C0.887115 8.65182 0.887115 7.94457 0.897311 7.73957C0.897311 7.09382 0.958484 6.45832 1.07064 5.82282C1.17259 5.22832 1.35611 4.65432 1.6212 4.12132C1.88628 3.58832 2.23293 3.10657 2.66114 2.68632C3.07916 2.26607 3.55835 1.90732 4.08852 1.64082C4.61869 1.37432 5.18964 1.17957 5.77079 1.08732C6.40291 0.984821 7.04523 0.923321 7.68755 0.923321H8.60515L113.385 0.913071H114.313C114.945 0.933571 115.577 0.984821 116.209 1.09757C116.8 1.20007 117.371 1.38457 117.912 1.66132C118.972 2.20457 119.828 3.07582 120.379 4.14182C120.644 4.67482 120.828 5.24882 120.93 5.83307C121.032 6.46857 121.093 7.11432 121.103 7.77032C121.103 8.05732 121.103 8.37507 121.103 8.68257C121.103 9.07207 121.103 9.43082 121.103 9.79982V31.2531C121.103 31.6221 121.103 31.9911 121.103 32.3601C121.103 32.6983 121.103 32.9956 121.103 33.3133C121.093 33.9488 121.032 34.5843 120.93 35.2096C120.838 35.8041 120.644 36.3781 120.379 36.9213C120.114 37.4441 119.757 37.9258 119.339 38.3461C118.921 38.7663 118.442 39.1251 117.912 39.3916C117.371 39.6683 116.8 39.8528 116.209 39.9553C115.577 40.0578 114.945 40.1193 114.302 40.1193C114.007 40.1193 113.691 40.1296 113.385 40.1296H112.284H8.60515V40.1091Z" fill="black"/>
<path d="M25.4882 20.3874C25.5086 18.5834 26.4568 16.9126 27.9862 15.9594C27.0176 14.5654 25.4475 13.7146 23.755 13.6634C21.9708 13.4789 20.2477 14.7294 19.3403 14.7294C18.4329 14.7294 17.0157 13.6736 15.517 13.7044C13.5391 13.7659 11.7344 14.8729 10.7761 16.6154C8.72675 20.1824 10.2561 25.4304 12.2238 28.3107C13.2026 29.7252 14.3547 31.3037 15.8534 31.2422C17.3216 31.1807 17.8722 30.2992 19.6462 30.2992C21.4202 30.2992 21.9198 31.2422 23.4491 31.2114C25.0294 31.1807 26.0184 29.7969 26.9666 28.3619C27.6701 27.3574 28.2207 26.2402 28.5775 25.0614C26.7015 24.2619 25.4882 22.4169 25.4781 20.3771L25.4882 20.3874Z" fill="white"/>
<path d="M22.5917 11.7669C23.4481 10.7316 23.8763 9.38889 23.7743 8.04614C22.4591 8.18964 21.2459 8.81489 20.369 9.81939C19.5126 10.8034 19.0742 12.0949 19.1558 13.4069C20.4914 13.4171 21.7556 12.8226 22.5917 11.7771V11.7669Z" fill="white"/>
<path d="M43.1281 27.8187H38.3057L37.1434 31.2627H35.1042L39.6719 18.5322H41.7925L46.3601 31.2627H44.2802L43.118 27.8187H43.1281ZM38.8052 26.2299H42.6286L40.7424 20.6437H40.6914L38.8052 26.2299Z" fill="white"/>
<path d="M56.2392 26.6185C56.2392 29.4988 54.6997 31.354 52.3853 31.354C51.1924 31.4155 50.0607 30.7903 49.4796 29.7345H49.4388V34.3265H47.5424V21.9753H49.3776V23.523H49.4082C50.0097 22.4775 51.1414 21.842 52.3445 21.883C54.6895 21.883 56.229 23.7485 56.229 26.6185H56.2392ZM54.2919 26.6185C54.2919 24.7428 53.3233 23.5025 51.8551 23.5025C50.387 23.5025 49.4286 24.7633 49.4286 26.6185C49.4286 28.4738 50.4074 29.7448 51.8551 29.7448C53.3029 29.7448 54.2919 28.5148 54.2919 26.6185Z" fill="white"/>
<path d="M66.3948 26.6185C66.3948 29.4988 64.8552 31.354 62.5409 31.354C61.348 31.4155 60.2163 30.7903 59.6351 29.7345H59.5943V34.3265H57.698V21.9753H59.5332V23.523H59.5638C60.1653 22.4775 61.297 21.842 62.5001 21.883C64.8451 21.883 66.3846 23.7485 66.3846 26.6185H66.3948ZM64.4474 26.6185C64.4474 24.7428 63.4788 23.5025 62.0107 23.5025C60.5425 23.5025 59.5841 24.7633 59.5841 26.6185C59.5841 28.4738 60.5629 29.7448 62.0107 29.7448C63.4585 29.7448 64.4474 28.5148 64.4474 26.6185Z" fill="white"/>
<path d="M73.1139 27.7159C73.2567 28.9767 74.4699 29.8069 76.142 29.8069C77.8141 29.8069 78.8846 28.9767 78.8846 27.8389C78.8846 26.8549 78.1913 26.2604 76.5498 25.8504L74.9083 25.4507C72.5837 24.8869 71.503 23.7902 71.503 22.0169C71.503 19.8234 73.4096 18.3167 76.1114 18.3167C78.8132 18.3167 80.6178 19.8234 80.679 22.0169H78.7623C78.6501 20.7459 77.6 19.9772 76.0808 19.9772C74.5617 19.9772 73.5115 20.7562 73.5115 21.8837C73.5115 22.7857 74.1743 23.3084 75.8055 23.7184L77.2023 24.0669C79.8022 24.6819 80.8829 25.7377 80.8829 27.5929C80.8829 29.9709 78.9968 31.4674 75.9993 31.4674C73.1955 31.4674 71.2991 30.0119 71.1768 27.7057H73.1139V27.7159Z" fill="white"/>
<path d="M84.9819 19.7818V21.9753H86.7355V23.4821H84.9819V28.5968C84.9819 29.3963 85.3285 29.7653 86.1034 29.7653C86.3073 29.7653 86.5214 29.7448 86.7253 29.7243V31.2208C86.3787 31.2823 86.0218 31.3131 85.6752 31.3131C83.8094 31.3131 83.0753 30.6058 83.0753 28.8121V23.4923H81.7295V21.9856H83.0753V19.7921H84.9819V19.7818Z" fill="white"/>
<path d="M87.744 26.6194C87.744 23.6981 89.4568 21.8634 92.1179 21.8634C94.7789 21.8634 96.4918 23.6981 96.4918 26.6194C96.4918 29.5406 94.7993 31.3754 92.1179 31.3754C89.4365 31.3754 87.744 29.5509 87.744 26.6194ZM94.575 26.6194C94.575 24.6206 93.6574 23.4316 92.1281 23.4316C90.5987 23.4316 89.6811 24.6206 89.6811 26.6194C89.6811 28.6181 90.5987 29.8071 92.1281 29.8071C93.6574 29.8071 94.575 28.6386 94.575 26.6194Z" fill="white"/>
<path d="M98.0713 21.9758H99.8759V23.5543H99.9167C100.172 22.5395 101.099 21.8425 102.139 21.8733C102.353 21.8733 102.578 21.8938 102.792 21.945V23.7285C102.517 23.6465 102.231 23.6055 101.946 23.6158C100.895 23.5748 99.9983 24.3948 99.9575 25.4608C99.9575 25.5633 99.9575 25.6555 99.9677 25.758V31.2623H98.0713V21.986V21.9758Z" fill="white"/>
<path d="M111.52 28.536C111.265 30.217 109.634 31.3753 107.543 31.3753C104.862 31.3753 103.19 29.5713 103.19 26.6603C103.19 23.7493 104.862 21.8633 107.462 21.8633C110.062 21.8633 111.622 23.6263 111.622 26.445V27.101H105.107V27.2138C104.995 28.5463 105.963 29.7148 107.289 29.8378C107.391 29.8378 107.492 29.848 107.584 29.8378C108.502 29.9198 109.368 29.397 109.715 28.536H111.51H111.52ZM105.117 25.7685H109.735C109.807 24.5385 108.869 23.4828 107.645 23.4213C107.584 23.4213 107.533 23.4213 107.472 23.4213C106.177 23.4213 105.127 24.4565 105.117 25.7583C105.117 25.7583 105.117 25.7685 105.117 25.7788V25.7685Z" fill="white"/>
<path d="M38.7541 8.94773C39.8144 8.89648 40.7117 9.71648 40.7626 10.7825C40.7626 10.8542 40.7626 10.9157 40.7626 10.9875C40.8034 12.0637 39.9776 12.9657 38.907 13.0067C38.8459 13.0067 38.7847 13.0067 38.7235 13.0067H37.3165V15.067H36.3683V8.94773H38.7541ZM37.3165 12.1662H38.5094C39.3251 12.1662 39.8043 11.746 39.8043 10.9875C39.8043 10.229 39.3455 9.78823 38.5094 9.78823H37.3165V12.1662Z" fill="white"/>
<path d="M41.6381 12.75C41.5259 11.5508 42.4027 10.4848 43.5956 10.3618C44.7885 10.249 45.8488 11.1305 45.9712 12.3298C45.9814 12.4733 45.9814 12.6065 45.9712 12.75C46.0833 13.9493 45.2167 15.0255 44.0136 15.1383C42.8207 15.251 41.7502 14.3798 41.6381 13.1703C41.6279 13.0268 41.6279 12.8833 41.6381 12.75ZM45.0332 12.75C45.0332 11.7455 44.5846 11.1613 43.7995 11.1613C43.0145 11.1613 42.5658 11.7455 42.5658 12.75C42.5658 13.7545 43.0043 14.3388 43.7995 14.3388C44.5846 14.3388 45.0332 13.7545 45.0332 12.75Z" fill="white"/>
<path d="M48.1659 14.3397H48.0946V15.0674H47.2177V8.65092H48.1251V11.1827H48.1965C48.4718 10.6599 49.0224 10.3422 49.6137 10.3729C50.776 10.3729 51.5101 11.2852 51.5101 12.7509C51.5101 14.2167 50.776 15.1392 49.6137 15.1392C49.0224 15.1699 48.4616 14.8522 48.1659 14.3294V14.3397ZM48.1149 12.7612C48.1149 13.7247 48.5941 14.3294 49.3588 14.3294C50.1235 14.3294 50.5823 13.7452 50.5823 12.7612C50.5823 11.7772 50.1235 11.1929 49.3588 11.1929C48.6043 11.1929 48.1251 11.7977 48.1149 12.7612Z" fill="white"/>
<path d="M52.6105 9.08062C52.5901 8.75262 52.8348 8.47587 53.1611 8.45537C53.4873 8.43487 53.7626 8.68087 53.783 9.00887C53.8034 9.33687 53.5587 9.61362 53.2324 9.63412C53.2222 9.63412 53.212 9.63412 53.2018 9.63412C52.896 9.65462 52.6309 9.40862 52.6207 9.10112V9.08062H52.6105ZM52.743 10.4439H53.6504V15.0564H52.743V10.4439Z" fill="white"/>
<path d="M58.9937 13.8172C58.7388 14.6884 57.9027 15.2522 57.0055 15.1497C55.8534 15.1804 54.8951 14.2682 54.8645 13.1099C54.8645 12.9972 54.8645 12.8844 54.8849 12.7717C54.7319 11.6032 55.5476 10.5372 56.6997 10.3834C56.8016 10.3732 56.9036 10.3629 56.9953 10.3629C58.2698 10.3629 59.0446 11.2444 59.0446 12.6897V13.0074H55.8025V13.0587C55.7413 13.7352 56.2409 14.3194 56.9138 14.3809C56.9546 14.3809 56.9953 14.3809 57.0259 14.3809C57.4643 14.4322 57.9027 14.2169 58.1169 13.8172H58.9937ZM55.8025 12.3309H58.1169C58.1576 11.7159 57.709 11.1829 57.0973 11.1419C57.0565 11.1419 57.0259 11.1419 56.9851 11.1419C56.3326 11.1419 55.8025 11.6544 55.7923 12.3104C55.7923 12.3104 55.7923 12.3309 55.7923 12.3412L55.8025 12.3309Z" fill="white"/>
<path d="M60.266 10.444H61.1428V11.1513H61.2142C61.4181 10.649 61.9177 10.3313 62.4581 10.362C62.5906 10.362 62.7333 10.3723 62.8659 10.403V11.305C62.7028 11.2743 62.5294 11.2538 62.3561 11.2538C61.7648 11.2025 61.2448 11.6433 61.1836 12.2378C61.1836 12.2685 61.1836 12.3095 61.1836 12.3403V15.0668H60.2762V10.4543L60.266 10.444Z" fill="white"/>
<path d="M63.7426 14.4405L66.2711 11.2835V11.2118H63.763V10.443H67.3518V11.1093L64.8845 14.215V14.2868H67.3824V15.0555H63.7528V14.4405H63.7426Z" fill="white"/>
<path d="M75.9281 15.0674H74.9901L74.0419 11.6644H73.9706L73.0224 15.0674H72.0946L70.8303 10.4549H71.7479L72.5738 13.9809H72.6451L73.5933 10.4549H74.4599L75.4081 13.9809H75.4795L76.2951 10.4549H77.2025L75.9383 15.0674H75.9281Z" fill="white"/>
</g>
<defs>
<clipPath id="clip0_4_7279">
<rect width="122" height="41" fill="white"/>
</clipPath>
</defs>
</svg>
