<?xml version="1.0" encoding="UTF-8"?>
<svg width="157px" height="43px" viewBox="0 0 157 43" version="1.1" xmlns="http://www.w3.org/2000/svg">
    <title>filmweb-logo-pl.ef98794c</title>
    <defs>
        <linearGradient x1="13.307%" y1="13.967%" x2="88.058%" y2="84.946%" id="linearGradient-1">
            <stop stop-color="#FFCD05" offset="0%"></stop>
            <stop stop-color="#D89124" offset="100%"></stop>
        </linearGradient>
    </defs>
    <g id="Page-1" stroke="none" stroke-width="1" fill="none" fill-rule="evenodd">
        <g id="filmweb-logo-pl.ef98794c" transform="translate(0.000000, -0.000155)">
            <g id="8xrn2jz7ca-link" transform="translate(43.612000, 13.780155)" fill="#FFFFFF" fill-rule="nonzero">
                <path d="M62.131,0.088 L66.205,13.122 L66.29,13.118 L68.752,0.176 L72.369,0.176 L67.539,21.857 L66.161,21.889 L61.5,8.037 L61.458,7.911 L56.895,21.889 L55.516,21.857 L50.626,0.176 L54.305,0.176 L56.79,13.17 L56.878,13.175 L60.9,0.088 L62.132,0.088 L62.131,0.088 Z M92.491,0 C97.496,0 99.735,2.85 99.735,5.673 C99.735,7.906 98.765,9.543 96.849,10.539 L96.761,10.583 L96.853,10.62 C98.995,11.47 100.173,13.272 100.173,15.69 C100.173,19.496 97.276,21.857 92.611,21.857 C91.304,21.857 89.431,21.735 88.157,21.566 L88.087,21.556 L88.087,0.332 L88.157,0.322 C89.476,0.138 91.342,0 92.491,0 Z M10.506,0.191 L10.506,3.381 L3.462,3.381 L3.462,9.568 L9.66,9.568 L9.66,12.672 L3.462,12.672 L3.462,21.699 L0,21.699 L0,0.191 L10.506,0.191 Z M16.591,0.191 L16.591,21.699 L13.126,21.699 L13.126,0.19 L16.591,0.19 L16.591,0.191 Z M23.32,0.191 L23.32,18.507 L30.16,18.507 L30.16,21.699 L19.855,21.699 L19.855,0.19 L23.319,0.19 L23.32,0.191 Z M34.119,0.104 L40.47,12.62 L40.511,12.7 L46.906,0.103 L48.541,0.103 L48.541,21.7 L45.266,21.7 L45.266,21.62 L45.293,9.63 L45.208,9.61 L40.738,18.38 L40.288,18.38 L35.818,9.61 L35.734,9.63 L35.76,21.62 L35.758,21.7 L32.487,21.7 L32.487,0.104 L34.119,0.104 L34.119,0.104 Z M85.184,0.176 L85.184,3.366 L77.992,3.366 L77.992,9.116 L84.482,9.116 L84.482,12.248 L77.992,12.248 L77.992,18.492 L85.184,18.492 L85.184,21.684 L74.528,21.684 L74.528,0.176 L85.184,0.176 L85.184,0.176 Z M92.903,11.985 C92.491,11.985 91.89,12.007 91.53,12.055 L91.492,12.059 L91.492,18.709 L91.53,18.713 C91.905,18.758 92.48,18.814 93.109,18.814 C95.289,18.814 96.592,17.516 96.592,15.341 C96.592,13.333 95.11,11.985 92.902,11.985 L92.903,11.985 Z M92.933,3.104 C92.546,3.104 91.988,3.12 91.53,3.199 L91.492,3.207 L91.492,9.385 L91.534,9.389 C91.72,9.404 92.219,9.437 92.814,9.437 C94.992,9.437 96.242,8.266 96.242,6.227 C96.242,4.242 95.034,3.104 92.932,3.104 L92.933,3.104 Z" id="8xrn2jz7ca"></path>
            </g>
            <g id="so7gkyoanb-link" transform="translate(0.000000, 7.000155)" fill="url(#linearGradient-1)" fill-rule="nonzero">
                <path d="M18.065,0 C28.041,0 36.129,8.059 36.129,18 C36.129,27.941 28.041,36 18.065,36 C8.088,36 0,27.941 0,18 C0,8.059 8.088,0 18.065,0 Z M13.035,23.076 L12.792,23.081 C11.9318418,23.1140347 11.1155259,23.4691874 10.505,24.076 L10.353,24.238 C9.766,24.893 9.472,25.678 9.472,26.598 L9.476,26.823 C9.514,27.713 9.85,28.473 10.473,29.12 L10.635,29.275 C11.294,29.869 12.08,30.164 13.004,30.164 L13.047,30.164 L13.285,30.157 C14.1307636,30.1145457 14.9308587,29.7604519 15.531,29.163 L15.685,28.999 C16.276,28.334 16.571,27.553 16.583,26.638 L16.579,26.413 C16.539,25.524 16.196,24.763 15.566,24.119 L15.404,23.964 C14.747,23.369 13.962,23.076 13.036,23.076 L13.035,23.076 Z M23.3,6.636 L21.737,9.718 L22.057,9.886 C22.5992778,10.1886291 23.1092535,10.5458131 23.579,10.952 L23.774,11.128 C23.903,11.248 24.031,11.372 24.159,11.501 L24.343,11.701 L24.523,11.911 L24.754,12.179 C24.98,12.449 25.193,12.728 25.386,13.025 L25.538,13.267 L25.688,13.511 L25.856,13.826 C26.018,14.144 26.162,14.469 26.28,14.809 L26.402,15.163 C26.668,15.998 26.796,16.899 26.796,17.845 L26.79,18.219 C26.7631432,19.1701971 26.5772407,20.1101877 26.24,21 L26.094,21.352 C25.99,21.585 25.876,21.814 25.754,22.042 L25.636,22.243 C25.556,22.375 25.474,22.503 25.386,22.634 L25.182,22.946 C24.972,23.256 24.746,23.56 24.494,23.856 L24.331,24.041 L24.159,24.235 L24.159,24.265 L24.008,24.395 L23.858,24.526 L23.574,24.766 C23.0094055,25.2268832 22.3928919,25.6202169 21.737,25.938 L23.341,29.011 L23.714,28.822 C24.5973385,28.3590395 25.4196528,27.7879879 26.162,27.122 L26.218,27.048 L26.28,26.97 L26.447,26.827 L26.617,26.681 L26.696,26.607 L27.001,26.289 C28.194,25.007 29.075,23.592 29.634,22.042 L29.745,21.675 C29.815,21.427 29.877,21.175 29.934,20.925 L30.024,20.504 C30.191,19.654 30.271,18.766 30.271,17.844 L30.268,17.406 C30.2493276,16.5682669 30.1491892,15.7343381 29.969,14.916 L29.859,14.436 C29.7819404,14.1248143 29.6955683,13.8160089 29.6,13.51 L29.43,13.09 C28.9469142,11.9659616 28.2965552,10.9214763 27.501,9.992 L27.237,9.697 C27.0606573,9.50292502 26.8802847,9.31255026 26.696,9.126 L26.65,9.084 L26.616,9.049 L26.43,8.792 L26.372,8.771 L26.316,8.751 L26.008,8.467 C25.4035558,7.92429775 24.7439615,7.44636001 24.04,7.041 L24.01,7.001 L23.976,6.968 L23.751,6.85 C23.6030143,6.77350921 23.4526029,6.70180536 23.3,6.635 L23.3,6.636 Z M7.633,14.042 L7.406,14.046 C6.509,14.085 5.74,14.419 5.085,15.047 L4.932,15.21 C4.345,15.87 4.05,16.66 4.05,17.584 L4.053,17.81 C4.09,18.705 4.426,19.473 5.053,20.122 L5.216,20.278 C5.879,20.874 6.671,21.172 7.602,21.172 L7.644,21.172 L7.884,21.165 C8.73533405,21.1220179 9.54052527,20.7650261 10.144,20.163 L10.3,20 C10.893,19.333 11.189,18.547 11.2,17.627 L11.197,17.4 C11.158,16.506 10.811,15.74 10.181,15.091 L10.018,14.935 C9.357,14.338 8.565,14.043 7.634,14.043 L7.633,14.042 Z M21.403,16.064 L15.398,16.064 L15.398,19.78 L21.403,19.78 L21.403,16.064 Z M12.943,5.154 L12.717,5.158 C11.8493249,5.1858711 11.024517,5.54181075 10.409,6.154 L10.257,6.315 C9.673,6.971 9.376,7.755 9.376,8.678 L9.381,8.921 C9.425,9.803 9.76,10.558 10.377,11.201 L10.539,11.355 C11.198,11.948 11.985,12.242 12.913,12.242 L12.963,12.242 L13.201,12.235 C14.0453843,12.191667 14.8439229,11.8376316 15.443,11.241 L15.608,11.064 C16.188,10.404 16.478,9.624 16.491,8.718 L16.487,8.493 C16.445,7.602 16.102,6.84 15.477,6.196 L15.315,6.041 C14.655,5.446 13.869,5.155 12.943,5.155 L12.943,5.154 Z" id="so7gkyoanb"></path>
            </g>
        </g>
    </g>
</svg>
